<svg id="Layer_1" data-name="Layer 1" xmlns="http://www.w3.org/2000/svg" viewBox="0 0 395.18 260.49"><defs><style>.cls-1{fill:#223559;}.cls-2{fill:#213559;}.cls-3{fill:#63708a;}.cls-4{fill:#283a5b;}.cls-5{fill:#233558;}.cls-6{fill:#26385b;}.cls-7{fill:#2b3d5e;}.cls-8{fill:#24375a;}.cls-9{fill:#253152;}.cls-10{fill:#14274b;}.cls-11{fill:#0c173d;}.cls-12{fill:#0a1438;}.cls-13{fill:#fbfbfb;}.cls-14{fill:#f9f9f9;}.cls-15{fill:#efeff1;}</style></defs><path class="cls-1" d="M329.54,341.34c.17-9.29.43-18.59.45-27.88,0-2.27,1.1-3.14,2.79-4.11,5-2.87,9.92-5.89,14.87-8.86,7.74-4.43,15.48-8.85,23.19-13.33,1.19-.69,3-1,2.59-3.1,2.29,1.16,3.74-.64,5.39-1.59q21.76-12.41,43.49-24.88v30.65c-6.79,3.93-14,7.18-20.13,12.17-9.47,4.19-17.89,10.23-26.93,15.17l-17.68,10C348.25,330.87,339.51,337.19,329.54,341.34Z" transform="translate(-224.31 -204.92)"/><path class="cls-1" d="M330.31,289.54c-1.61-.87-.84-2.36-.82-3.56.13-7.8.53-15.6.48-23.4a6.22,6.22,0,0,1,3.59-6.24q43.95-25.33,87.78-50.91l1.15-.08h0q-.08,15.08-.14,30.17l-65,37.89Z" transform="translate(-224.31 -204.92)"/><path class="cls-2" d="M515.18,282.39c1.3,5.11-.73,8.11-5.45,10.39a55.51,55.51,0,0,0-12.46,7.63l-28,15.81-45.87,26.34-.06-30.17,18.89-11.07,28.15-16.75c6-3.56,12.72-6.08,17.85-11.11,2,.13,3.41-1.16,5-2,7.05-4,14.05-8,21.07-12.08,0,1.82,0,3.64.08,5.45C514.8,270.65,513.3,276.6,515.18,282.39Z" transform="translate(-224.31 -204.92)"/><path class="cls-2" d="M515.17,335.34c1.11,4.69-.78,7.25-5,9.68-28.3,16.16-56.4,32.67-84.57,49-.95.56-1.76,1.64-3.12,1.2.94-1.85.79-3.85.8-5.83q.09-12.42.22-24.83c3.72-2.15,7.46-4.25,11.16-6.44q26.82-15.86,53.62-31.74l26.18-14.79C514.76,319.53,513.34,327.49,515.17,335.34Z" transform="translate(-224.31 -204.92)"/><path class="cls-3" d="M423.46,364.6q-.12,12.4-.22,24.83c0,2,.14,4-.8,5.83q-26.49-15.11-53-30.23-19-10.87-37.83-21.91c-.76-.44-2-.45-2.09-1.78,10-4.15,18.71-10.47,28-15.8-.45,1.93,1.3,2.07,2.31,2.66,6.54,3.86,13.09,7.71,19.72,11.43C394.27,347.86,408.46,356.93,423.46,364.6Z" transform="translate(-224.31 -204.92)"/><path class="cls-3" d="M514.28,259.34c-7,4-14,8.1-21.07,12.08-1.55.88-3,2.17-5,2-4.52-1.32-8.21-4.24-12.2-6.54-17.94-10.4-35.8-20.92-53.69-31.4q.08-15.09.14-30.17c8.65,3.84,16.61,9,24.79,13.66q32.08,18.38,64,37c1.11.64,2.49,1,3.1,2.3C514.35,258.66,514.32,259,514.28,259.34Z" transform="translate(-224.31 -204.92)"/><path class="cls-3" d="M514.42,311.63l-26.18,14.79c-6.35-3.34-12.09-7.82-18.95-10.2l28-15.81c6,3.74,12.57,6.46,18,11.07A.87.87,0,0,0,514.42,311.63Z" transform="translate(-224.31 -204.92)"/><path class="cls-3" d="M330.31,289.54l27.05-16.13c.65,2,2.64,2.26,4.07,3.22,3.9,2.63,8.42,4.28,12,7.43.4,2.08-1.4,2.41-2.59,3.1-7.71,4.48-15.45,8.9-23.19,13.33C342.4,296,335.69,293.83,330.31,289.54Z" transform="translate(-224.31 -204.92)"/><path class="cls-4" d="M349.14,464.25c-7.7,1.65-7.54,1.61-7.89-5.85-.09-1.88,2.49-5.61-2.56-5.78-2.83-.09-3.94.83-3.61,3.64.15,1.31-.09,2.67,0,4,.31,3.06-.12,4.79-4.07,4.81s-4.12-1.78-4.06-4.8c.15-7.47.26-15,0-22.42-.15-3.53,1.5-3.55,4.14-3.59,2.8-.06,4.53.33,4.05,3.71-.23,1.63.1,3.33-.07,5-.27,2.72,1.29,2.75,3.34,2.89,2.5.16,3.34-.72,3-3.08a10.56,10.56,0,0,1,0-1.49c0-7.13,0-7.13,7.05-6.75,0,2.82-.15,5.66,0,8.48C348.78,450.07,347.53,457.21,349.14,464.25Z" transform="translate(-224.31 -204.92)"/><path class="cls-5" d="M586.38,449.55c0,10-4.19,15.59-11.8,15.77-8.06.19-12.66-5.26-12.93-15.31-.29-10.61,5.31-16.86,14.25-15.88C582.82,434.88,586.38,440.12,586.38,449.55Zm-16.46.13c1,3-1,8.45,4.25,8.38,4.81-.07,4.05-5.06,4.11-8.59s.3-8.25-3.89-8.42C569.31,440.86,570.59,446.12,569.92,449.68Z" transform="translate(-224.31 -204.92)"/><path class="cls-5" d="M418.37,449.22c-.11,9.72-4.5,15.66-11.4,16.09-7.36.46-12.46-4-13.45-12.18a23.34,23.34,0,0,1,.69-9.84c1.93-6.23,5.67-9.36,11.71-9.31s10,3.37,11.59,9.53C418.06,445.6,418.59,447.69,418.37,449.22Zm-17.11.16c.88,3.28-.36,8.65,4.41,8.66,5.12,0,4.41-5.44,4.4-9,0-3.24.21-8.19-4.39-8.07S402.12,446.1,401.26,449.38Z" transform="translate(-224.31 -204.92)"/><path class="cls-4" d="M269.49,452.43c-1.23,4.33-.18,6.66,4.88,5.83,1.62-.27,3.34.09,5-.08,2.54-.27,3.09.91,3,3.19-.11,1.95.08,3.63-2.74,3.56-5.33-.13-10.66-.1-16,0-2,0-2.57-.8-2.56-2.67.06-8.49.08-17,0-25.47,0-2,.78-2.54,2.66-2.5,4.83.1,9.66.09,14.49,0,3.12,0,3.21,1.9,3.39,4.29.22,2.88-1.4,2.8-3.36,2.71-1.49-.08-3,.16-4.49-.05-4.1-.57-5.56.95-4.25,4.94,1.86,2.14,4.35.78,6.53,1.13,1.26.21,2.28.46,2.28,2s-1,1.8-2.27,2C273.84,451.66,271.36,450.31,269.49,452.43Z" transform="translate(-224.31 -204.92)"/><path class="cls-5" d="M506.44,465.32a12.19,12.19,0,0,1-7.37-1.77c-1.36-.8-4.69-.73-2.84-3.69,1.27-2,2.43-5.69,6.14-2.62a3.07,3.07,0,0,0,1.32.64c2.22.42,5.41,1.63,6.35-.54,1.34-3.11-2.37-3.21-4.26-4-7.9-3.46-10-5.78-9.49-11,.42-4.41,4-6.82,8.52-7.39,3.8-.47,7.36-1.34,10.69,1.14.89.66,3.15,1.05,1.74,2.68-1.19,1.38-1.39,4.63-4.54,3.47-2.74-1-6.81-3.2-7.84,0-1.18,3.63,3.94,3.36,6.34,4.48,6.37,3,8.46,5.61,7.5,10.59C517.7,462.45,513.37,465.35,506.44,465.32Z" transform="translate(-224.31 -204.92)"/><path class="cls-6" d="M376.41,447.28c-.91-2.18-.68-4.49-.68-6.76,0-6.39,0-6.39,6.71-6,0,2.49-.15,5,0,7.49.36,7.42-.9,14.89.71,22.28-7.43,1.54-7.43,1.53-9.88-5-1.36-3.62-2.76-7.24-4.49-11.77l-.49,3.84c-1.46,1.54-.47,3.51-.91,5.19-.61,2.31,2,6.67-2.56,6.51-4.29-.16-2.19-4.39-2.28-6.75-.28-7.26-.11-14.54-.11-21.82,5-1.32,7.76.52,9.06,5.59,1.12,4.37,3,8.56,4.48,12.79.93-.56.22-1.72.61-2.58a2.9,2.9,0,0,0,.7-3.57C376.62,445.52,376.73,447.08,376.41,447.28Z" transform="translate(-224.31 -204.92)"/><path class="cls-6" d="M612.3,447.28c-.91-2.18-.68-4.49-.68-6.76,0-6.39,0-6.39,6.71-6,0,2.49-.15,5,0,7.49.36,7.42-.9,14.89.71,22.28-7.43,1.54-7.43,1.53-9.88-5-1.35-3.62-2.76-7.24-4.49-11.77l-.49,3.84c-1.46,1.54-.46,3.51-.91,5.19-.61,2.31,2,6.67-2.56,6.51-4.29-.16-2.19-4.39-2.28-6.75-.28-7.26-.11-14.54-.11-21.82,5-1.32,7.76.52,9.06,5.59,1.12,4.37,3,8.56,4.48,12.79.93-.56.23-1.72.61-2.58a2.9,2.9,0,0,0,.7-3.57C612.51,445.52,612.62,447.08,612.3,447.28Z" transform="translate(-224.31 -204.92)"/><path class="cls-5" d="M439.68,457.79c1.74-7.77,3.06-14.38,4.74-20.89,1.34-5.17,5.61-1.3,8.91-3-2.84,9.85-5.43,18.95-8.11,28a3.75,3.75,0,0,1-4.37,3c-2.64-.24-5.92.72-7-2.67-2.72-8.62-5.12-17.34-7.61-26-.18-.63-.83-1.35.49-1.89a6.1,6.1,0,0,1,8.39,4.25C436.59,444.62,438,450.68,439.68,457.79Z" transform="translate(-224.31 -204.92)"/><path class="cls-7" d="M473,464.91c-2.33,0-4.67-.11-7,0-2.48.15-3.94-.11-3.93-3.34,0-3,1.11-3.82,3.74-3.38,2.84.47,3.4-1,3.24-3.43a58.5,58.5,0,0,1,0-7.49c.25-3.71.46-7-5.05-6.07-2.53.43-1.77-1.88-1.71-3.15s-1.13-3.69,1.74-3.73c6-.07,12-.05,18,0,2.79,0,1.85,2.21,1.95,3.66.12,1.63.36,3.75-2.29,3.27-4.54-.83-4.74,1.79-4.5,5.11a40.05,40.05,0,0,1,0,6.48c-.34,3.58-.06,6.21,4.74,5.42,2.78-.46,2,1.94,2.09,3.43.14,1.81,0,3.34-2.51,3.24C478.66,464.82,475.83,464.91,473,464.91ZM469.72,456l.43.05V442.35h-.43Z" transform="translate(-224.31 -204.92)"/><path class="cls-5" d="M318.08,460.2c-4.79,5.36-9.86,6.11-15.48,4.35-5.91-1.84-8.72-6.16-9.29-12.12-1.16-12.17,5.77-19.76,16.69-18.22a10.13,10.13,0,0,1,4.15,1.4c1,.67,3.44,1.15,2.22,2.91-1.07,1.55-1.92,4.56-5,3.17-3.49-1.56-6.71-1.19-8.6,2.21-2.22,4-2.34,8.39.45,12.15,2.31,3.11,5.46,2.83,8.87,1.16S315,460.43,318.08,460.2Z" transform="translate(-224.31 -204.92)"/><path class="cls-6" d="M237.3,434.33c2.82,0,5.66.15,8.47,0s4.12.15,4.15,3.59c0,3.67-1.81,3.74-4.29,3.38-3.39-.49-4.67.59-4.43,4.22.34,5.13-.16,10.32.17,15.45.24,3.59-1.3,4-4.33,4.06s-4.14-.61-4-3.83c.28-5.14-.26-10.33.18-15.45.34-4-1.15-5-4.65-4.41s-4.49-.92-4.27-4.32c.15-2.31,1-2.76,3-2.68C230.64,434.42,234,434.33,237.3,434.33Z" transform="translate(-224.31 -204.92)"/><path class="cls-8" d="M529.66,459.35c0-.16.07-.47.07-.47,8.19.92,6.65-4.86,6.63-9.6a35.07,35.07,0,0,1,0-4.47c.34-2.78-.65-4-3.51-3.53-3,.52-3.43-1-3.49-3.7s1-3.37,3.45-3.29c4.64.15,9.29.14,13.93,0,2.92-.09,4.54.45,4.69,4,.17,4.21-2.57,2.77-4.55,3-.82.09-1.66.07-2.49.09-1.67,5.66-1.95,11.29.16,16.91l-.2-.23c1,2,2.9,1,4.38,1.4a1.71,1.71,0,0,1,1.42,1.73c0,.88-.26,1.87-1.16,1.9-5.08.15-10.17,0-15.24.29C530.61,463.55,532.13,459.51,529.66,459.35Z" transform="translate(-224.31 -204.92)"/><path class="cls-9" d="M362.4,434.48c0,7.28-.17,14.56.11,21.82.09,2.36-2,6.59,2.28,6.75,4.61.16,1.95-4.2,2.56-6.51.44-1.68-.55-3.65.91-5.19.09,3,.09,5.93.28,8.89s.18,4.81-3.91,4.8-3.53-2.25-3.53-4.71c0-7.43-.06-14.86.08-22.28C361.21,436.89,359.92,434.93,362.4,434.48Z" transform="translate(-224.31 -204.92)"/><path class="cls-9" d="M598.29,434.48c0,7.28-.17,14.56.11,21.82.09,2.36-2,6.59,2.28,6.75,4.61.16,2-4.2,2.56-6.51.45-1.68-.55-3.65.91-5.19.09,3,.09,5.93.28,8.89s.18,4.81-3.91,4.8-3.53-2.25-3.53-4.71c0-7.43-.06-14.86.09-22.28C597.1,436.89,595.81,434.93,598.29,434.48Z" transform="translate(-224.31 -204.92)"/><path class="cls-10" d="M529.66,459.35c2.47.16,1,4.2,4.12,4,5.07-.31,10.16-.14,15.24-.29.9,0,1.17-1,1.16-1.9a1.71,1.71,0,0,0-1.42-1.73c-1.48-.41-3.4.56-4.38-1.4a19.1,19.1,0,0,0,3.45.18c2.74-.36,3.66.56,3.63,3.45,0,2.73-1,3.29-3.47,3.19a93.2,93.2,0,0,0-13.37.05C529.88,465.41,528.78,463.47,529.66,459.35Z" transform="translate(-224.31 -204.92)"/><path class="cls-11" d="M349.14,464.25c-1.61-7-.36-14.18-.71-21.27-.14-2.82,0-5.66,0-8.48.85.08,1,.66,1,1.36Q349.29,450.06,349.14,464.25Z" transform="translate(-224.31 -204.92)"/><path class="cls-12" d="M383.12,464.27c-1.61-7.39-.35-14.86-.71-22.28-.12-2.49,0-5,0-7.49,1.87.68.9,2.28.9,3.38C383.35,446.68,383.21,455.47,383.12,464.27Z" transform="translate(-224.31 -204.92)"/><path class="cls-12" d="M619,464.27c-1.61-7.39-.35-14.86-.71-22.28-.12-2.49,0-5,0-7.49,1.88.68.9,2.28.9,3.38C619.24,446.68,619.1,455.47,619,464.27Z" transform="translate(-224.31 -204.92)"/><path class="cls-12" d="M514.28,259.34c0-.34.07-.68.11-1,2.07,2.05.82,4.6.88,6.87.16,5.73,0,11.47-.09,17.2-1.88-5.79-.38-11.74-.82-17.6C514.23,263,514.3,261.16,514.28,259.34Z" transform="translate(-224.31 -204.92)"/><path class="cls-12" d="M514.42,311.63a.87.87,0,0,1,.85-.15q0,11.92-.1,23.86C513.34,327.49,514.76,319.53,514.42,311.63Z" transform="translate(-224.31 -204.92)"/><path class="cls-10" d="M269.49,452.43c1.87-2.12,4.35-.77,6.53-1.12,1.27-.2,2.28-.47,2.27-2s-1-1.77-2.28-2c-2.18-.35-4.67,1-6.53-1.13,2.13,0,4.27.06,6.39-.06,2.34-.13,3.89-.09,3.9,3.18s-1.55,3.32-3.9,3.18C273.75,452.37,271.62,452.45,269.49,452.43Z" transform="translate(-224.31 -204.92)"/><path class="cls-11" d="M544.58,458.27c-2.11-5.62-1.83-11.25-.16-16.91Q544.5,449.82,544.58,458.27Z" transform="translate(-224.31 -204.92)"/><path class="cls-10" d="M376.41,447.28c.32-.2.21-1.76.84-.57a2.9,2.9,0,0,1-.7,3.57C376.5,449.28,376.46,448.28,376.41,447.28Z" transform="translate(-224.31 -204.92)"/><path class="cls-10" d="M612.3,447.28c.32-.2.21-1.76.84-.57a2.9,2.9,0,0,1-.7,3.57Z" transform="translate(-224.31 -204.92)"/><path class="cls-3" d="M422.49,205.35l-1.15.08C421.69,205,422,204.56,422.49,205.35Z" transform="translate(-224.31 -204.92)"/><path class="cls-13" d="M373.43,284.06c-3.58-3.15-8.1-4.8-12-7.43-1.43-1-3.42-1.25-4.07-3.22l65-37.89c17.89,10.48,35.75,21,53.69,31.4,4,2.3,7.68,5.22,12.2,6.54-5.13,5-11.81,7.55-17.85,11.11-5.5-3.07-11-6.16-16.5-9.21-10.57-5.85-20.61-12.64-31.59-17.77Q400.56,270,378.82,282.47C377.17,283.42,375.72,285.22,373.43,284.06Z" transform="translate(-224.31 -204.92)"/><path class="cls-13" d="M469.29,316.22c6.86,2.38,12.6,6.86,18.95,10.2q-26.81,15.87-53.62,31.74c-3.7,2.19-7.44,4.29-11.16,6.44-15-7.67-29.19-16.74-43.87-25-6.63-3.72-13.18-7.57-19.72-11.43-1-.59-2.76-.73-2.31-2.66l17.68-10c3.94,2.4,7.82,4.92,11.85,7.17,11.67,6.52,22.83,13.94,34.93,19.69.49.72,1,1.17,1.44,0l0,.13Z" transform="translate(-224.31 -204.92)"/><path class="cls-3" d="M422,342.44c-12.1-5.75-23.26-13.17-34.93-19.69-4-2.25-7.91-4.77-11.85-7.17,9-4.94,17.46-11,26.93-15.17l21.19,12,.06,30.17,0-.13Z" transform="translate(-224.31 -204.92)"/><path class="cls-3" d="M422.31,257.59c11,5.13,21,11.92,31.59,17.77,5.51,3.05,11,6.14,16.5,9.21l-28.15,16.75c.65-2.26-1.5-2.26-2.55-2.89-5.75-3.48-11.59-6.81-17.4-10.19Z" transform="translate(-224.31 -204.92)"/><path class="cls-14" d="M422.3,288.24c5.81,3.38,11.65,6.71,17.4,10.19,1.05.63,3.2.63,2.55,2.89l-18.89,11.07-21.19-12C408.31,295.42,415.51,292.17,422.3,288.24Z" transform="translate(-224.31 -204.92)"/><path class="cls-14" d="M569.92,449.68c.67-3.56-.61-8.82,4.47-8.63,4.19.17,4,4.95,3.89,8.42s.7,8.52-4.11,8.59C569,458.13,570.87,452.69,569.92,449.68Z" transform="translate(-224.31 -204.92)"/><path class="cls-15" d="M401.26,449.38c.86-3.28-.12-8.25,4.42-8.37s4.38,4.83,4.39,8.07c0,3.52.72,9-4.4,9C400.9,458,402.14,452.66,401.26,449.38Z" transform="translate(-224.31 -204.92)"/><path class="cls-10" d="M469.72,456V442.36h.43v13.72Z" transform="translate(-224.31 -204.92)"/><path class="cls-2" d="M422,342.44h1.44C423,343.61,422.51,343.16,422,342.44Z" transform="translate(-224.31 -204.92)"/></svg>